<svg xmlns="http://www.w3.org/2000/svg" viewBox="0 0 200 56" width="200" height="56" role="img" aria-label="Start — TAWAN-OS">
  <title>Start — TAWAN-OS</title>
  <rect x="7" y="7" width="190" height="46" rx="23" fill="#2D1B4E"/>
  <rect x="2" y="2" width="190" height="46" rx="23" fill="#A8E8D0" stroke="#2D1B4E" stroke-width="3"/>
  <rect x="14" y="8" width="150" height="6" rx="3" fill="#FFFFFF" opacity=".55"/>
  <g shape-rendering="crispEdges"><rect x="25" y="10" width="3" height="3" fill="#2D1B4E"/><rect x="28" y="10" width="3" height="3" fill="#2D1B4E"/><rect x="40" y="10" width="3" height="3" fill="#2D1B4E"/><rect x="43" y="10" width="3" height="3" fill="#2D1B4E"/><rect x="22" y="13" width="3" height="3" fill="#2D1B4E"/><rect x="25" y="13" width="3" height="3" fill="#F0B0D0"/><rect x="28" y="13" width="3" height="3" fill="#F0B0D0"/><rect x="31" y="13" width="3" height="3" fill="#2D1B4E"/><rect x="37" y="13" width="3" height="3" fill="#2D1B4E"/><rect x="40" y="13" width="3" height="3" fill="#F0B0D0"/><rect x="43" y="13" width="3" height="3" fill="#F0B0D0"/><rect x="46" y="13" width="3" height="3" fill="#2D1B4E"/><rect x="22" y="16" width="3" height="3" fill="#2D1B4E"/><rect x="25" y="16" width="3" height="3" fill="#F0B0D0"/><rect x="28" y="16" width="3" height="3" fill="#FFFFFF"/><rect x="31" y="16" width="3" height="3" fill="#F0B0D0"/><rect x="34" y="16" width="3" height="3" fill="#F0B0D0"/><rect x="37" y="16" width="3" height="3" fill="#F0B0D0"/><rect x="40" y="16" width="3" height="3" fill="#F0B0D0"/><rect x="43" y="16" width="3" height="3" fill="#F0B0D0"/><rect x="46" y="16" width="3" height="3" fill="#F0B0D0"/><rect x="49" y="16" width="3" height="3" fill="#2D1B4E"/><rect x="22" y="19" width="3" height="3" fill="#2D1B4E"/><rect x="25" y="19" width="3" height="3" fill="#F0B0D0"/><rect x="28" y="19" width="3" height="3" fill="#F0B0D0"/><rect x="31" y="19" width="3" height="3" fill="#F0B0D0"/><rect x="34" y="19" width="3" height="3" fill="#F0B0D0"/><rect x="37" y="19" width="3" height="3" fill="#F0B0D0"/><rect x="40" y="19" width="3" height="3" fill="#F0B0D0"/><rect x="43" y="19" width="3" height="3" fill="#F0B0D0"/><rect x="46" y="19" width="3" height="3" fill="#FF6090"/><rect x="49" y="19" width="3" height="3" fill="#2D1B4E"/><rect x="22" y="22" width="3" height="3" fill="#2D1B4E"/><rect x="25" y="22" width="3" height="3" fill="#F0B0D0"/><rect x="28" y="22" width="3" height="3" fill="#F0B0D0"/><rect x="31" y="22" width="3" height="3" fill="#F0B0D0"/><rect x="34" y="22" width="3" height="3" fill="#F0B0D0"/><rect x="37" y="22" width="3" height="3" fill="#F0B0D0"/><rect x="40" y="22" width="3" height="3" fill="#F0B0D0"/><rect x="43" y="22" width="3" height="3" fill="#FF6090"/><rect x="46" y="22" width="3" height="3" fill="#FF6090"/><rect x="49" y="22" width="3" height="3" fill="#2D1B4E"/><rect x="25" y="25" width="3" height="3" fill="#2D1B4E"/><rect x="28" y="25" width="3" height="3" fill="#F0B0D0"/><rect x="31" y="25" width="3" height="3" fill="#F0B0D0"/><rect x="34" y="25" width="3" height="3" fill="#F0B0D0"/><rect x="37" y="25" width="3" height="3" fill="#F0B0D0"/><rect x="40" y="25" width="3" height="3" fill="#FF6090"/><rect x="43" y="25" width="3" height="3" fill="#FF6090"/><rect x="46" y="25" width="3" height="3" fill="#2D1B4E"/><rect x="28" y="28" width="3" height="3" fill="#2D1B4E"/><rect x="31" y="28" width="3" height="3" fill="#F0B0D0"/><rect x="34" y="28" width="3" height="3" fill="#F0B0D0"/><rect x="37" y="28" width="3" height="3" fill="#FF6090"/><rect x="40" y="28" width="3" height="3" fill="#FF6090"/><rect x="43" y="28" width="3" height="3" fill="#2D1B4E"/><rect x="31" y="31" width="3" height="3" fill="#2D1B4E"/><rect x="34" y="31" width="3" height="3" fill="#FF6090"/><rect x="37" y="31" width="3" height="3" fill="#FF6090"/><rect x="40" y="31" width="3" height="3" fill="#2D1B4E"/><rect x="34" y="34" width="3" height="3" fill="#2D1B4E"/><rect x="37" y="34" width="3" height="3" fill="#2D1B4E"/></g>
  <text x="62" y="32" font-family="'Trebuchet MS', Verdana, sans-serif" font-size="18" font-weight="700" fill="#2D1B4E">TAWAN-OS</text>
</svg>
